# xmcd
#
# Track frame offsets:
#	150
#	17950
#	34866
#	50301
#	64110
#	83213
#	101030
#	118975
#	133832
#	160280
#	177745
#	194518
#	211213
#	230800
#
# Disc length: 3312 seconds
#
# Revision: 1
# Processed by: cddbd v1.4PL0 Copyright (c) Steve Scherf et al.
# Submitted via: MusicWizard 6.0.2
#
DISCID=d40cee0e
DTITLE=André Hazes - Kerstfeest Voor Ons
DYEAR=1992
DGENRE=X-mas
TTITLE0=Ik Steek Voor Ons De Kaarsen Aan
TTITLE1=Waarom
TTITLE2=Voor Mij Geen Kerstdiner
TTITLE3=Eenzame Kerst
TTITLE4=Kerstfeest Voor Ons
TTITLE5=Slaap Zacht
TTITLE6=Bel Me Nou
TTITLE7=Dan Is 't Kerstfeest Zo Echt
TTITLE8=Met Kerst Ben Ik Alleen
TTITLE9=Dan Word Ik Klein
TTITLE10=Wat Kan Ik Doen Om Dit Te Helen
TTITLE11=M'n Oude Huis
TTITLE12=Ik Zal Vannavond Niet Allleen Zijn
TTITLE13=Nog Mooier Dan Voorheen
EXTD=
EXTT0=
EXTT1=
EXTT2=
EXTT3=
EXTT4=
EXTT5=
EXTT6=
EXTT7=
EXTT8=
EXTT9=
EXTT10=
EXTT11=
EXTT12=
EXTT13=
PLAYORDER=
